<?xml version="1.0" encoding="iso-8859-1"?>
<!-- Generator: Adobe Illustrator 19.0.0, SVG Export Plug-In . SVG Version: 6.00 Build 0)  -->
<svg xmlns="http://www.w3.org/2000/svg" xmlns:xlink="http://www.w3.org/1999/xlink" version="1.1" id="Capa_1" x="0px" y="0px" viewBox="0 0 493.802 493.802" style="enable-background:new 0 0 493.802 493.802;" xml:space="preserve" width="512px" height="512px">
<g>
	<g>
		<path d="M343.65,130.402c-44.4,28.2-76.9,69.9-115.3,105c-1.7,1.6-1.8,6.6-0.9,9.1c1.8,5,6.9,5.9,12.2,5c17.5-3,33.2-12.2,46.7-24    c32.5-28.4,66.1-55.8,94.4-88.8c4.1-3.5,8.2-7,12.1-10.6c20.9-19,41.3-38.5,59.6-60c-1.1,23.8-0.9,47.6,2.6,71.4    c1.2,7.9,5.8,14.4,14.8,13.9c8.3-0.5,14.4-6.1,15.3-14.2c1.7-14.5,3.6-29.2,3.4-43.8c-0.4-23.5-2.4-46.9-3.7-70.4    c0.2-0.9,0.5-1.9,0.7-2.8v-0.1c1.3-5.2-1.8-10.6-7.1-11.9l-6.6-1.7c-41.2-10.4-83.2-4.2-124.8-6.5c-1.9-0.1-4.9,3.4-5.8,5.8    c-1.9,4.9,0.6,9,4.2,12.1c11.9,10.3,26.3,14.8,41,16c15.9,1.3,31.8,2.9,47.7,4c-11.2,9.3-22.4,18.7-32.6,29.1    C381.75,87.602,362.95,109.202,343.65,130.402z" fill="#FFFFFF"/>
		<path d="M474.35,277.702c-5.2,27.9-8.9,58.8-11.4,91.3c-0.3,4.1-0.6,8.2-0.9,12.3l-0.4,6.2l-0.6,5.7l-0.3,3.1    c-0.2,0.9-0.4,1.7-0.6,2.5c-0.4,1.6-0.7,3.2-1.2,4.9c-1.1,3.4-2.1,6.9-3.7,10.2c-5.7,13.3-15.5,24.8-27.4,32.9    c-7.2,4.8-15.3,8.3-23.7,10.2c-8.6,2-16.2,2-27.3,1.7l-62.2-1.2c-41.5-0.7-83-1.3-124.5-2c-20.8-0.2-41.5-0.4-62.3-0.6l-15.7-0.1    h-7.8l-6.8-0.4c-7.2-0.8-15.2-2.9-22.5-6.5c-14.5-7.1-26.5-19.6-32.8-34.6c-3.2-7.5-5-15.5-5.2-23.7l-0.6-30.9    c0.4-20.6,0.7-41.2,1.1-61.9l1-98.2c0.1-32.4,0.3-64.7,0.4-97.1l0.1-3.1c0-1.1,0.2-1.4,0.3-2.2c0.2-1.3,0.4-2.6,0.6-3.9    c0.9-3,1.3-6.1,2.6-9c2-5.9,5-11.5,8.7-16.6c3.6-5.2,8.1-9.7,13-13.6c4.9-4,10.5-7.1,16.3-9.5c5.8-2.5,12-3.8,18.3-4.6l4.8-0.4    l6-0.1l12.2-0.3c16.3-0.4,32.6-0.9,48.9-1.3c37-1.2,67.8-5.8,65.1-14.8c-2.5-8.3-28.8-14.4-66.8-15.3c-17.1-0.4-34.2-0.9-51.3-1.3    l-12.9-0.3c-2.2,0-4.9,0.1-7.4,0.2l-3.8,0.1l-3.8,0.5c-10.1,1.1-19.9,4-29.1,8.2c-4.7,2-9,4.7-13.4,7.3c-4.1,3-8.3,5.9-12,9.4    c-7.5,6.9-14.2,14.7-19.3,23.6c-5.1,8.8-9.3,18.3-11.4,28.4c-0.7,2.4-1,5.3-1.5,8l-0.6,4.1c-0.2,1.5-0.2,2.3-0.3,3.4l-0.3,7.3v6.4    c0.2,55.1,0.8,110.2,1.5,165.3l1.1,82.6l0.3,20.7l0.1,5.2v2.6l0.2,3c0.2,4,0.5,8,1.2,11.9c1.1,7.9,3.7,15.5,6.7,22.9    c3.3,7.2,7.1,14.2,12.1,20.5c7.9,11.8,18.5,22,30.9,29.6c3.2,1.7,6.4,3.5,9.7,5.1c3.4,1.3,6.7,3,10.2,4c3.6,1,6.8,2.3,10.9,2.9    c3.9,0.7,8.2,1.5,10.9,1.6l4.6,0.4l5.5,0.2l9.3,0.3l18.6,0.6c12.4,0.3,24.9,0.6,37.3,0.9c49.8,1,99.8,1.4,149.9,1.4h37.6h18.8h4.7    h2.3l2.8-0.1c3.9-0.3,7.7-0.2,11.5-1c30.8-4.1,59-22.6,75-48.9l3-4.9c0.9-1.7,1.7-3.5,2.6-5.2c1.8-3.4,3.1-7,4.4-10.7    c1.5-3.6,2.2-7.4,3.2-11.1s1.4-8.2,2-12.3c0.2-1.1,0.2-1.9,0.2-2.7l0.1-2.3l0.2-4.7v-10.4v-18.8c0.2-25,0.4-50,0.5-75    c0.1-8.9-3.4-22.8-5.8-27.2C481.65,249.502,477.45,260.802,474.35,277.702z" fill="#FFFFFF"/>
	</g>
</g>
<g>
</g>
<g>
</g>
<g>
</g>
<g>
</g>
<g>
</g>
<g>
</g>
<g>
</g>
<g>
</g>
<g>
</g>
<g>
</g>
<g>
</g>
<g>
</g>
<g>
</g>
<g>
</g>
<g>
</g>
</svg>
